<!-- 青云播 Logo - 专业版SVG -->
<svg width="240" height="80" viewBox="0 0 240 80" xmlns="http://www.w3.org/2000/svg">
  <!-- 渐变和效果定义 -->
  <defs>
    <!-- 主背景渐变 -->
    <linearGradient id="mainGradient" x1="0%" y1="0%" x2="100%" y2="100%">
      <stop offset="0%" style="stop-color:#667eea;stop-opacity:1" />
      <stop offset="25%" style="stop-color:#764ba2;stop-opacity:1" />
      <stop offset="75%" style="stop-color:#667eea;stop-opacity:1" />
      <stop offset="100%" style="stop-color:#764ba2;stop-opacity:1" />
    </linearGradient>
    
    <!-- 播放按钮渐变 -->
    <linearGradient id="playGradient" x1="0%" y1="0%" x2="100%" y2="100%">
      <stop offset="0%" style="stop-color:#4CAF50;stop-opacity:1" />
      <stop offset="50%" style="stop-color:#66BB6A;stop-opacity:1" />
      <stop offset="100%" style="stop-color:#45a049;stop-opacity:1" />
    </linearGradient>
    
    <!-- 云朵渐变 -->
    <linearGradient id="cloudGradient" x1="0%" y1="0%" x2="100%" y2="100%">
      <stop offset="0%" style="stop-color:#ffffff;stop-opacity:0.9" />
      <stop offset="50%" style="stop-color:#e8f4f8;stop-opacity:0.8" />
      <stop offset="100%" style="stop-color:#ffffff;stop-opacity:0.7" />
    </linearGradient>
    
    <!-- 文字渐变 -->
    <linearGradient id="textGradient" x1="0%" y1="0%" x2="100%" y2="0%">
      <stop offset="0%" style="stop-color:#ffffff;stop-opacity:1" />
      <stop offset="50%" style="stop-color:#f0f8ff;stop-opacity:1" />
      <stop offset="100%" style="stop-color:#e6f3ff;stop-opacity:0.95" />
    </linearGradient>
    
    <!-- 发光效果 -->
    <filter id="glow">
      <feGaussianBlur stdDeviation="3" result="coloredBlur"/>
      <feMerge> 
        <feMergeNode in="coloredBlur"/>
        <feMergeNode in="SourceGraphic"/>
      </feMerge>
    </filter>
    
    <!-- 内阴影效果 -->
    <filter id="insetShadow">
      <feOffset dx="0" dy="2"/>
      <feGaussianBlur stdDeviation="2"/>
      <feComposite operator="over"/>
    </filter>
    
    <!-- 外阴影效果 -->
    <filter id="dropShadow">
      <feDropShadow dx="2" dy="4" stdDeviation="3" flood-opacity="0.3"/>
    </filter>
  </defs>
  
  <!-- 主背景容器 -->
  <rect width="240" height="80" rx="20" ry="20" fill="url(#mainGradient)" filter="url(#dropShadow)"/>
  
  <!-- 装饰性背景图案 -->
  <g opacity="0.1">
    <circle cx="200" cy="20" r="15" fill="white"/>
    <circle cx="220" cy="35" r="10" fill="white"/>
    <circle cx="30" cy="60" r="12" fill="white"/>
  </g>
  
  <!-- 装饰性云朵群 -->
  <g opacity="0.7">
    <!-- 左上角云朵组 -->
    <g transform="translate(25, 15)">
      <ellipse cx="0" cy="0" rx="10" ry="5" fill="url(#cloudGradient)"/>
      <ellipse cx="-5" cy="3" rx="7" ry="3.5" fill="url(#cloudGradient)"/>
      <ellipse cx="5" cy="3" rx="6" ry="3" fill="url(#cloudGradient)"/>
      <ellipse cx="-2" cy="6" rx="4" ry="2" fill="url(#cloudGradient)"/>
    </g>
    
    <!-- 右下角云朵组 -->
    <g transform="translate(200, 55)">
      <ellipse cx="0" cy="0" rx="8" ry="4" fill="url(#cloudGradient)"/>
      <ellipse cx="-4" cy="2" rx="5" ry="2.5" fill="url(#cloudGradient)"/>
      <ellipse cx="4" cy="2" rx="4" ry="2" fill="url(#cloudGradient)"/>
    </g>
    
    <!-- 中间装饰云朵 -->
    <ellipse cx="120" cy="15" rx="6" ry="3" fill="url(#cloudGradient)" opacity="0.5"/>
    <ellipse cx="180" cy="65" rx="5" ry="2.5" fill="url(#cloudGradient)" opacity="0.4"/>
  </g>
  
  <!-- 播放器图标区域 -->
  <g transform="translate(20, 20)">
    <!-- 播放器主体 -->
    <rect x="0" y="0" width="40" height="28" rx="4" ry="4" 
          fill="rgba(255,255,255,0.2)" 
          stroke="rgba(255,255,255,0.5)" 
          stroke-width="1.5"
          filter="url(#insetShadow)"/>
    
    <!-- 播放按钮 -->
    <polygon points="12,8 12,20 26,14" 
             fill="url(#playGradient)" 
             filter="url(#glow)"
             stroke="rgba(255,255,255,0.4)"
             stroke-width="0.8"/>
    
    <!-- 屏幕反光效果 -->
    <rect x="2" y="2" width="36" height="12" rx="2" ry="2" 
          fill="rgba(255,255,255,0.15)"/>
    
    <!-- 状态指示灯 -->
    <circle cx="34" cy="24" r="1.5" fill="#4CAF50" opacity="0.9"/>
    <circle cx="34" cy="24" r="3" fill="none" stroke="#4CAF50" stroke-width="0.5" opacity="0.5"/>
    
    <!-- 边框装饰线条 -->
    <rect x="0" y="0" width="40" height="28" rx="4" ry="4" 
          fill="none" 
          stroke="rgba(255,255,255,0.3)" 
          stroke-width="1"/>
  </g>
  
  <!-- 品牌文字区域 -->
  <g transform="translate(75, 25)">
    <!-- 中文主标题 -->
    <text x="0" y="20" 
          font-family="'Microsoft YaHei', 'PingFang SC', 'Hiragino Sans GB', sans-serif" 
          font-size="26" 
          font-weight="700" 
          fill="url(#textGradient)"
          filter="url(#dropShadow)">
      青云播
    </text>
    
    <!-- 英文副标题 -->
    <text x="0" y="38" 
          font-family="'Segoe UI', 'Arial', sans-serif" 
          font-size="11" 
          font-weight="500" 
          fill="rgba(255,255,255,0.85)" 
          letter-spacing="2px">
      CLOUD VIDEO PLAYER
    </text>
    
    <!-- 装饰性下划线 -->
    <line x1="0" y1="42" x2="120" y2="42" 
          stroke="rgba(255,255,255,0.3)" 
          stroke-width="1"/>
  </g>
  
  <!-- 装饰性粒子和星光效果 -->
  <g opacity="0.6">
    <!-- 大粒子 -->
    <circle cx="180" cy="25" r="2" fill="white" opacity="0.8"/>
    <circle cx="190" cy="35" r="1.5" fill="white" opacity="0.7"/>
    <circle cx="170" cy="45" r="1.8" fill="white" opacity="0.6"/>
    <circle cx="200" cy="50" r="1.2" fill="white" opacity="0.8"/>
    
    <!-- 小粒子 -->
    <circle cx="60" cy="60" r="1" fill="rgba(255,255,255,0.7)"/>
    <circle cx="55" cy="65" r="1.5" fill="rgba(255,255,255,0.6)"/>
    <circle cx="50" cy="55" r="0.8" fill="rgba(255,255,255,0.8)"/>
    
    <!-- 星光效果 -->
    <g transform="translate(185, 30)">
      <path d="M0,-4 L1,0 L4,0 L1.5,2 L2.5,6 L0,3 L-2.5,6 L-1.5,2 L-4,0 L-1,0 Z" 
            fill="white" opacity="0.7" transform="scale(0.3)"/>
    </g>
    <g transform="translate(165, 50)">
      <path d="M0,-4 L1,0 L4,0 L1.5,2 L2.5,6 L0,3 L-2.5,6 L-1.5,2 L-4,0 L-1,0 Z" 
            fill="white" opacity="0.5" transform="scale(0.25)"/>
    </g>
  </g>
  
  <!-- 外边框高光 -->
  <rect width="240" height="80" rx="20" ry="20" 
        fill="none" 
        stroke="rgba(255,255,255,0.25)" 
        stroke-width="1.5"/>
        
  <!-- 内边框阴影 -->
  <rect x="2" y="2" width="236" height="76" rx="18" ry="18" 
        fill="none" 
        stroke="rgba(0,0,0,0.15)" 
        stroke-width="1"/>
</svg>
